<svg width="131" height="129" viewBox="0 0 131 129" fill="none" xmlns="http://www.w3.org/2000/svg">
<path d="M69.4318 11.3746C60.2475 21.8167 60.6595 37.6614 70.7198 47.5682C75.8253 52.5955 82.6062 55.3653 89.8305 55.3653C96.3869 55.3653 102.577 53.0503 107.488 48.8493L69.4318 11.3746ZM110.211 46.1657C119.414 35.7405 119.001 19.8942 108.922 9.96852C103.817 4.94139 97.0357 2.17163 89.8305 2.17163C83.256 2.17163 77.0639 4.48726 72.1524 8.68871L110.211 46.1657Z" fill="white"/>
<path d="M81.3735 58.0021C76.3647 56.6173 71.7797 53.9614 68.0039 50.2432C64.1702 46.487 61.5693 41.9151 60.2016 37.0776L22.0325 79.7443L38.0688 95.536L81.3735 58.0021ZM54.4029 59.5387L60.3366 53.6959C61.4924 52.5576 63.361 52.5576 64.5362 53.6959C65.6729 54.8151 65.6922 56.6742 64.5362 57.8125L58.5834 63.6743C57.4276 64.8126 55.5397 64.7936 54.4029 63.6743C53.2278 62.5361 53.2278 60.696 54.4029 59.5387Z" fill="white"/>
<path d="M58.1128 86.1593L31.891 111.981C30.4198 113.43 27.8537 113.43 26.3824 111.981L19.9747 105.672C18.4564 104.176 18.4564 101.742 19.9747 100.246L21.4699 98.7741L24.8315 102.071C26.2535 103.507 28.648 103.672 30.2448 102.317L35.171 98.0476L19.4808 82.5967L15.1609 87.4255C13.7736 88.9431 13.8891 91.2954 15.3918 92.7942L18.7429 96.0942L17.2505 97.5639C14.231 100.539 14.231 105.379 17.2505 108.354L23.6583 114.663C26.6828 117.646 31.5901 117.646 34.6151 114.663L60.8369 88.8419C62.357 87.3468 64.8291 87.3468 66.3492 88.8419C67.8693 90.3388 67.8693 92.774 66.3492 94.2709L36.011 124.146L38.7352 126.828L69.0733 96.9534C70.537 95.5121 71.3441 93.5956 71.3441 91.5559C71.3441 89.5171 70.537 87.6006 69.0733 86.1593C66.0519 83.184 61.1342 83.184 58.1128 86.1593Z" fill="white"/>
</svg>
